<svg aria-hidden="true" style="position: absolute; width: 0; height: 0; overflow: hidden;" version="1.1" xmlns="http://www.w3.org/2000/svg" xmlns:xlink="http://www.w3.org/1999/xlink">
    <defs>
        <symbol id="icon-arrow-left" viewBox="0 0 32 32">
            <path stroke-width="2.6667" stroke-miterlimit="4" stroke-linecap="round" stroke-linejoin="round" d="M25.333 16h-18.667"></path>
            <path stroke-width="2.6667" stroke-miterlimit="4" stroke-linecap="round" stroke-linejoin="round" d="M16 25.333l-9.333-9.333 9.333-9.333"></path>
        </symbol>
        <symbol id="icon-arrow-right" viewBox="0 0 32 32">
            <path stroke-width="2.6667" stroke-miterlimit="4" stroke-linecap="round" stroke-linejoin="round" d="M6.667 16h18.667"></path>
            <path stroke-width="2.6667" stroke-miterlimit="4" stroke-linecap="round" stroke-linejoin="round" d="M16 25.333l9.333-9.333-9.333-9.333"></path>
        </symbol>
        <symbol id="icon-cross" viewBox="0 0 32 32">
<path d="M31.708 25.708c-0-0-0-0-0-0l-9.708-9.708 9.708-9.708c0-0 0-0 0-0 0.105-0.105 0.18-0.227 0.229-0.357 0.133-0.356 0.057-0.771-0.229-1.057l-4.586-4.586c-0.286-0.286-0.702-0.361-1.057-0.229-0.13 0.048-0.252 0.124-0.357 0.228 0 0-0 0-0 0l-9.708 9.708-9.708-9.708c-0-0-0-0-0-0-0.105-0.104-0.227-0.18-0.357-0.228-0.356-0.133-0.771-0.057-1.057 0.229l-4.586 4.586c-0.286 0.286-0.361 0.702-0.229 1.057 0.049 0.13 0.124 0.252 0.229 0.357 0 0 0 0 0 0l9.708 9.708-9.708 9.708c-0 0-0 0-0 0-0.104 0.105-0.18 0.227-0.229 0.357-0.133 0.355-0.057 0.771 0.229 1.057l4.586 4.586c0.286 0.286 0.702 0.361 1.057 0.229 0.13-0.049 0.252-0.124 0.357-0.229 0-0 0-0 0-0l9.708-9.708 9.708 9.708c0 0 0 0 0 0 0.105 0.105 0.227 0.18 0.357 0.229 0.356 0.133 0.771 0.057 1.057-0.229l4.586-4.586c0.286-0.286 0.362-0.702 0.229-1.057-0.049-0.13-0.124-0.252-0.229-0.357z"></path>
</symbol>
        <symbol id="icon-filmoteka" viewBox="0 0 173 32">
            <path d="M16.939 18.616h-11.445v12.051h-4.941v-28.437h18.067v3.984h-13.125v8.457h11.445v3.945zM27.135 30.667h-4.747v-21.133h4.747v21.133zM22.093 4.045c0-0.729 0.228-1.333 0.684-1.816 0.469-0.481 1.133-0.723 1.992-0.723 0.86 0 1.524 0.24 1.992 0.723 0.469 0.481 0.704 1.087 0.704 1.816 0 0.716-0.235 1.316-0.704 1.797-0.468 0.468-1.133 0.703-1.992 0.703s-1.523-0.235-1.992-0.703c-0.456-0.481-0.684-1.080-0.684-1.797zM37.368 30.667h-4.747v-30h4.747v30zM47.017 9.533l0.136 2.208c1.484-1.733 3.516-2.599 6.093-2.599 2.827 0 4.76 1.081 5.801 3.243 1.536-2.161 3.699-3.243 6.484-3.243 2.331 0 4.063 0.645 5.196 1.933 1.147 1.289 1.732 3.191 1.757 5.704v13.887h-4.747v-13.751c0-1.34-0.292-2.324-0.879-2.948-0.585-0.627-1.556-0.939-2.909-0.939-1.080 0-1.967 0.293-2.656 0.88-0.677 0.573-1.153 1.328-1.427 2.265l0.020 14.492h-4.747v-13.907c-0.064-2.487-1.333-3.731-3.808-3.731-1.901 0-3.249 0.776-4.043 2.325v15.312h-4.747v-21.133h4.473zM76.471 19.905c0-2.071 0.409-3.933 1.229-5.587 0.821-1.667 1.973-2.943 3.457-3.827 1.484-0.9 3.191-1.349 5.117-1.349 2.852 0 5.163 0.919 6.933 2.755 1.784 1.836 2.747 4.271 2.891 7.304l0.020 1.113c0 2.084-0.404 3.947-1.211 5.587-0.795 1.64-1.94 2.909-3.437 3.808-1.485 0.899-3.204 1.348-5.157 1.348-2.981 0-5.371-0.989-7.168-2.969-1.783-1.992-2.676-4.641-2.676-7.948v-0.235zM81.217 20.315c0 2.175 0.448 3.88 1.347 5.117 0.899 1.224 2.148 1.836 3.749 1.836s2.845-0.625 3.731-1.875c0.899-1.251 1.347-3.080 1.347-5.488 0-2.136-0.461-3.828-1.387-5.079-0.911-1.249-2.153-1.875-3.729-1.875-1.549 0-2.78 0.619-3.692 1.855-0.911 1.224-1.367 3.060-1.367 5.508zM106.080 4.397v5.136h3.729v3.516h-3.729v11.797c0 0.807 0.156 1.393 0.468 1.757 0.325 0.352 0.899 0.528 1.72 0.528 0.547 0 1.099-0.067 1.659-0.196v3.672c-0.934 0.277-2.008 0.441-3.119 0.449l-0.005 0c-3.647 0-5.469-2.012-5.469-6.035v-11.973h-3.476v-3.516h3.476v-5.136h4.747zM122.76 31.057c-3.008 0-5.451-0.944-7.325-2.832-1.861-1.901-2.793-4.427-2.793-7.579v-0.587c0-2.108 0.404-3.989 1.212-5.643 0.82-1.667 1.965-2.963 3.437-3.888 1.471-0.924 3.112-1.387 4.921-1.387 2.877 0 5.097 0.919 6.66 2.755 1.576 1.836 2.364 4.433 2.364 7.793v1.913h-13.809c0.144 1.745 0.723 3.125 1.739 4.141 1.029 1.015 2.317 1.523 3.867 1.523 2.175 0 3.947-0.879 5.313-2.636l2.559 2.44c-0.847 1.264-1.98 2.247-3.4 2.951-1.405 0.689-2.987 1.035-4.745 1.035zM122.193 12.951c-1.303 0-2.357 0.457-3.164 1.368-0.795 0.912-1.303 2.181-1.524 3.809h9.043v-0.352c-0.104-1.588-0.527-2.787-1.269-3.593-0.743-0.821-1.771-1.231-3.087-1.231zM141.803 21.604l-2.109 2.168v6.895h-4.747v-30h4.747v17.305l1.484-1.856 5.84-6.583h5.703l-7.852 8.809 8.692 12.324h-5.488l-6.269-9.063zM168.463 30.667c-0.209-0.404-0.391-1.061-0.547-1.973-1.511 1.576-3.36 2.364-5.548 2.364-2.121 0-3.853-0.605-5.195-1.816-1.341-1.212-2.012-2.709-2.012-4.493 0-2.252 0.833-3.977 2.5-5.175 1.68-1.212 4.076-1.817 7.188-1.817h2.909v-1.387c0-1.093-0.305-1.965-0.917-2.616-0.612-0.665-1.543-0.997-2.793-0.997-1.080 0-1.965 0.273-2.656 0.821-0.691 0.533-1.035 1.217-1.035 2.051h-4.747c0-1.16 0.384-2.24 1.152-3.243 0.768-1.016 1.811-1.809 3.125-2.383 1.328-0.573 2.807-0.86 4.433-0.86 2.475 0 4.447 0.627 5.919 1.876 1.471 1.236 2.227 2.981 2.265 5.235v9.531c0 1.901 0.267 3.417 0.8 4.551v0.332h-4.843zM163.248 27.248c0.937 0 1.816-0.227 2.636-0.683 0.833-0.456 1.459-1.068 1.875-1.836v-3.984h-2.559c-1.757 0-3.079 0.307-3.964 0.917-0.885 0.613-1.328 1.477-1.328 2.597 0 0.912 0.299 1.64 0.897 2.187 0.612 0.535 1.427 0.801 2.443 0.801z"></path>
        </symbol>
        <symbol id="icon-heart" viewBox="0 0 34 32">
            <path d="M17.231 31.705l-2.412-2.412c-8.96-7.926-14.818-13.268-14.818-19.815 0-5.342 4.135-9.477 9.477-9.477 2.929 0 5.858 1.378 7.754 3.618 1.895-2.24 4.825-3.618 7.754-3.618 5.342 0 9.477 4.135 9.477 9.477 0 6.548-5.858 11.889-14.818 19.815l-2.412 2.412z"></path>
        </symbol>
        <symbol id="icon-logo" viewBox="0 0 32 32">
            <path fill="none" stroke="#818181" stroke-width="2.6667" stroke-miterlimit="4" stroke-linecap="round" stroke-linejoin="round" style="stroke: var(--color3, #818181)" d="M26.427 2.667h-20.853c-1.605 0-2.907 1.301-2.907 2.907v20.853c0 1.605 1.301 2.907 2.907 2.907h20.853c1.605 0 2.907-1.301 2.907-2.907v-20.853c0-1.605-1.301-2.907-2.907-2.907z"></path>
            <path fill="none" stroke="#818181" stroke-width="2.6667" stroke-miterlimit="4" stroke-linecap="round" stroke-linejoin="round" style="stroke: var(--color3, #818181)" d="M9.333 2.667v26.667"></path>
            <path fill="none" stroke="#818181" stroke-width="2.6667" stroke-miterlimit="4" stroke-linecap="round" stroke-linejoin="round" style="stroke: var(--color3, #818181)" d="M22.667 2.667v26.667"></path>
            <path fill="none" stroke="#818181" stroke-width="2.6667" stroke-miterlimit="4" stroke-linecap="round" stroke-linejoin="round" style="stroke: var(--color3, #818181)" d="M2.667 16h26.667"></path>
            <path fill="none" stroke="#818181" stroke-width="2.6667" stroke-miterlimit="4" stroke-linecap="round" stroke-linejoin="round" style="stroke: var(--color3, #818181)" d="M2.667 9.333h6.667"></path>
            <path fill="none" stroke="#818181" stroke-width="2.6667" stroke-miterlimit="4" stroke-linecap="round" stroke-linejoin="round" style="stroke: var(--color3, #818181)" d="M2.667 22.667h6.667"></path>
            <path fill="none" stroke="#818181" stroke-width="2.6667" stroke-miterlimit="4" stroke-linecap="round" stroke-linejoin="round" style="stroke: var(--color3, #818181)" d="M22.667 22.667h6.667"></path>
            <path fill="none" stroke="#818181" stroke-width="2.6667" stroke-miterlimit="4" stroke-linecap="round" stroke-linejoin="round" style="stroke: var(--color3, #818181)" d="M22.667 9.333h6.667"></path>
        </symbol>
        <symbol id="icon-search" viewBox="0 0 32 32">
            <path fill="none" stroke="#fff" stroke-width="2.6667" stroke-miterlimit="4" stroke-linecap="round" stroke-linejoin="round" style="stroke: var(--color1, #fff)" d="M14.667 25.333c5.891 0 10.667-4.776 10.667-10.667s-4.776-10.667-10.667-10.667c-5.891 0-10.667 4.776-10.667 10.667s4.776 10.667 10.667 10.667z"></path>
            <path fill="none" stroke="#fff" stroke-width="2.6667" stroke-miterlimit="4" stroke-linecap="round" stroke-linejoin="round" style="stroke: var(--color1, #fff)" d="M28 28l-5.8-5.8"></path>
        </symbol>
        <symbol id="icon-arrow-left1" viewBox="0 0 32 32">
            <path stroke-width="2.666" stroke-miterlimit="4" stroke-linecap="round" stroke-linejoin="round" d="M6.666 16h18.668M16 25.334l9.334-9.334-9.334-9.334"></path>
        </symbol>
        <symbol id="icon-arrow-right1" viewBox="0 0 32 32">
            <path stroke-width="2.666" stroke-miterlimit="4" stroke-linecap="round" stroke-linejoin="round" d="M25.334 16h-18.668M16 25.334l-9.334-9.334 9.334-9.334"></path>
        </symbol>
        <symbol id="icon-group-arrow1" viewBox="0 0 32 32">
            <path fill="#f7f7f7" style="fill: var(--color1, #f7f7f7)" d="M4 0h24c2.209 0 4 1.791 4 4v24c0 2.209-1.791 4-4 4h-24c-2.209 0-4-1.791-4-4v-24c0-2.209 1.791-4 4-4z"></path>
            <path fill="none" stroke="#000" stroke-width="1.0664" stroke-miterlimit="4" stroke-linecap="round" stroke-linejoin="round" style="stroke: var(--color2, #000)" d="M19.734 16h-7.467M16 19.734l-3.734-3.734 3.734-3.734"></path>
        </symbol>
        <symbol id="icon-group-arrow2" viewBox="0 0 32 32">
            <path fill="#f7f7f7" style="fill: var(--color1, #f7f7f7)" d="M28 0h-24c-2.209 0-4 1.791-4 4v24c0 2.209 1.791 4 4 4h24c2.209 0 4-1.791 4-4v-24c0-2.209-1.791-4-4-4z"></path>
            <path fill="none" stroke="#000" stroke-width="1.0664" stroke-miterlimit="4" stroke-linecap="round" stroke-linejoin="round" style="stroke: var(--color2, #000)" d="M12.266 16h7.467M16 19.734l3.734-3.734-3.734-3.734"></path>
        </symbol>
        <symbol id="icon-close2" viewBox="0 0 32 32">
            <path d="M8 8l14 14M8 22L22 8" stroke="#000" stroke-width="2"/>
        </symbol>
        <symbol id="icon-search2" viewBox="0 0 32 32">
            <path d="M5.5 9.5C7.70914 9.5 9.5 7.70914 9.5 5.5C9.5 3.29086 7.70914 1.5 5.5 1.5C3.29086 1.5 1.5 3.29086 1.5 5.5C1.5 7.70914 3.29086 9.5 5.5 9.5Z" stroke="white" stroke-linecap="round" stroke-linejoin="round"/>
            <path d="M10.5 10.5L8.32495 8.32495" stroke="white" stroke-linecap="round" stroke-linejoin="round"/>
        </symbol>
        <symbol id="icon-other-search" viewBox="0 0 32 32">
            <path d="M20 .005c-6.627 0-12 5.373-12 12 0 2.026.507 3.933 1.395 5.608l-8.344 8.342.007.006A3.515 3.515 0 000 28.477a3.529 3.529 0 003.529 3.529c.985 0 1.874-.406 2.515-1.059l-.002-.002 8.341-8.34c1.676.891 3.586 1.4 5.617 1.4 6.627 0 12-5.373 12-12s-5.373-12-12-12zM4.795 29.697a1.75 1.75 0 01-1.266.543 1.764 1.764 0 01-1.765-1.764c0-.498.21-.943.543-1.266l-.009-.008 8.066-8.066a12.101 12.101 0 002.494 2.498l-8.063 8.063zM20 22.006c-5.522 0-10-4.479-10-10s4.478-10 10-10c5.521 0 10 4.478 10 10s-4.479 10-10 10zm0-17.001a.5.5 0 010 1 6 6 0 00-6 6 .5.5 0 01-1 0 7 7 0 017-7z"/>
        </symbol>
        <symbol id="icon-search3" viewBox="0 0 32 32">
            <path fill="none" stroke="#fff" stroke-width="2.6667" stroke-miterlimit="4" stroke-linecap="round" stroke-linejoin="round" style="stroke: var(--color1, #fff)" d="M14.667 25.333c5.891 0 10.667-4.776 10.667-10.667s-4.776-10.667-10.667-10.667v0c-5.891 0-10.667 4.776-10.667 10.667s4.776 10.667 10.667 10.667v0zM28 28l-5.8-5.8"></path>
        </symbol>
        <symbol id="icon-github" viewBox="0 0 32 32">
<path d="M16 0.395c-8.836 0-16 7.163-16 16 0 7.069 4.585 13.067 10.942 15.182 0.8 0.148 1.094-0.347 1.094-0.77 0-0.381-0.015-1.642-0.022-2.979-4.452 0.968-5.391-1.888-5.391-1.888-0.728-1.849-1.776-2.341-1.776-2.341-1.452-0.993 0.11-0.973 0.11-0.973 1.606 0.113 2.452 1.649 2.452 1.649 1.427 2.446 3.743 1.739 4.656 1.33 0.143-1.034 0.558-1.74 1.016-2.14-3.554-0.404-7.29-1.777-7.29-7.907 0-1.747 0.625-3.174 1.649-4.295-0.166-0.403-0.714-2.030 0.155-4.234 0 0 1.344-0.43 4.401 1.64 1.276-0.355 2.645-0.532 4.005-0.539 1.359 0.006 2.729 0.184 4.008 0.539 3.054-2.070 4.395-1.64 4.395-1.64 0.871 2.204 0.323 3.831 0.157 4.234 1.026 1.12 1.647 2.548 1.647 4.295 0 6.145-3.743 7.498-7.306 7.895 0.574 0.497 1.085 1.47 1.085 2.963 0 2.141-0.019 3.864-0.019 4.391 0 0.426 0.288 0.925 1.099 0.768 6.354-2.118 10.933-8.113 10.933-15.18 0-8.837-7.164-16-16-16z"></path>
</symbol>
    </defs>
</svg>